<svg width="24" height="24" viewBox="0 0 24 24" fill="none" xmlns="http://www.w3.org/2000/svg">
<path d="M5.45687 3.15668H3.70642V24H17.1369V22.2495H5.45687V3.15668Z" fill="#41AF5A"/>
<path d="M6.8631 0V20.8433H20.2936V0H6.8631ZM8.63957 1.77253H10.0458V3.17878H8.63957V1.77253ZM14.2802 15.5775H12.874V14.2045C12.5985 14.2909 12.3083 14.3361 12.0103 14.3361C10.426 14.3361 9.13715 13.0471 9.13715 11.4629C9.13715 10.3913 9.73044 9.4297 10.6406 8.93639C10.6283 8.82825 10.6221 8.71912 10.6221 8.6093C10.6221 7.02502 11.9111 5.73614 13.4953 5.73614C15.0795 5.73614 16.3685 7.02502 16.3685 8.6093C16.3685 8.69264 16.3649 8.77566 16.3578 8.8582C17.3503 9.32016 18.017 10.3252 18.017 11.4629C18.017 13.0471 16.728 14.3361 15.1438 14.3361C14.8458 14.3361 14.5556 14.2909 14.2801 14.2045V15.5775H14.2802ZM18.5682 19.0869H17.162V17.6807H18.5682V19.0869Z" fill="#41AF5A"/>
<path d="M13.5771 11.9471L14.0848 12.4771C14.3646 12.769 14.7406 12.9298 15.1438 12.9298C15.9527 12.9298 16.6108 12.2717 16.6108 11.4629C16.6108 10.7564 16.1075 10.15 15.414 10.0213L14.6065 9.87127L14.8791 9.09657C14.9343 8.93972 14.9623 8.7758 14.9623 8.6093C14.9623 7.80043 14.3042 7.1424 13.4953 7.1424C12.6864 7.1424 12.0284 7.80043 12.0284 8.6093C12.0284 8.78471 12.059 8.95618 12.1193 9.11897L12.3893 9.84727L11.6379 10.0436C10.9934 10.2121 10.5434 10.7956 10.5434 11.4628C10.5434 12.2717 11.2015 12.9298 12.0103 12.9298C12.4136 12.9298 12.7896 12.7689 13.0694 12.477L13.5771 11.9471Z" fill="#41AF5A"/>
</svg>
