<svg width="32" height="32" viewBox="0 0 32 32" fill="none" xmlns="http://www.w3.org/2000/svg">
<path d="M7.27534 29.6642V4.20703H4.94141V31.9981H22.8487V29.6642H7.27534Z" fill="#294F56"/>
<path d="M18.3987 16.8519L21.899 13.3516C22.2089 13.0417 22.3796 12.6297 22.3796 12.1915C22.3796 11.7533 22.2089 11.3412 21.899 11.0313C21.2593 10.3916 20.2184 10.3916 19.5787 11.0313L18.3988 12.2113L17.2188 11.0313C16.9089 10.7215 16.4968 10.5508 16.0587 10.5508C15.6205 10.5508 15.2084 10.7215 14.8985 11.0313C14.5887 11.3412 14.418 11.7533 14.418 12.1915C14.418 12.6297 14.5887 13.0417 14.8985 13.3516L18.3987 16.8519Z" fill="#294F56"/>
<path d="M9.15033 27.7911H27.0576V0H9.15033V27.7911ZM24.7571 25.4492H22.8821V23.5742H24.7571V25.4492ZM16.059 8.67575C16.931 8.67575 17.7544 8.991 18.3992 9.56763C19.7781 8.33638 21.9021 8.38237 23.2253 9.70556C23.8893 10.3696 24.255 11.2524 24.255 12.1915C24.255 13.1306 23.8893 14.0134 23.2253 14.6775L18.3991 19.5036L13.573 14.6774C12.909 14.0134 12.5433 13.1306 12.5433 12.1915C12.5433 11.2524 12.909 10.3696 13.573 9.7055C14.2371 9.0415 15.12 8.67575 16.059 8.67575ZM11.519 2.36337H13.394V4.23838H11.519V2.36337Z" fill="#294F56"/>
</svg>
